<?xml version="1.0" standalone="no"?><!DOCTYPE svg PUBLIC "-//W3C//DTD SVG 1.1//EN" "http://www.w3.org/Graphics/SVG/1.1/DTD/svg11.dtd"><svg class="icon" width="200px" height="200.00px" viewBox="0 0 1024 1024" version="1.1" xmlns="http://www.w3.org/2000/svg"><path fill="#000000" d="M512 149.333333a21.333333 21.333333 0 0 1 21.333333-21.333333h426.666667a21.333333 21.333333 0 0 1 0 42.666667H533.333333a21.333333 21.333333 0 0 1-21.333333-21.333334zM64 554.666667h896a21.333333 21.333333 0 0 0 0-42.666667H64a21.333333 21.333333 0 0 0 0 42.666667z m896 341.333333H64a21.333333 21.333333 0 0 0 0 42.666667h896a21.333333 21.333333 0 0 0 0-42.666667zM469.333333 164.573333c0 29.046667-2.38 56.293333-31.64 95.653334-26.786667 36-75.426667 82.78-167.88 161.333333a21.333333 21.333333 0 0 1-27.626666 0c-92.453333-78.58-141.093333-125.333333-167.88-161.333333C45.046667 220.866667 42.666667 193.62 42.666667 164.573333 42.666667 97.333333 97.333333 42.666667 164.573333 42.666667A121.866667 121.866667 0 0 1 256 83.92 121.866667 121.866667 0 0 1 347.426667 42.666667C414.666667 42.666667 469.333333 97.333333 469.333333 164.573333z m-42.666666 0a79.253333 79.253333 0 0 0-151.28-33.046666 21.333333 21.333333 0 0 1-38.773334 0A79.253333 79.253333 0 0 0 85.333333 164.573333c0 24.246667 1.56 41.066667 23.213334 70.193334C131.653333 265.84 176.106667 308.86 256 377.293333c79.893333-68.433333 124.346667-111.453333 147.453333-142.526666C425.106667 205.64 426.666667 188.82 426.666667 164.573333z"  /></svg>