<?xml version="1.0" standalone="no"?><!DOCTYPE svg PUBLIC "-//W3C//DTD SVG 1.1//EN" "http://www.w3.org/Graphics/SVG/1.1/DTD/svg11.dtd"><svg t="1665125974735" class="icon" viewBox="0 0 1024 1024" version="1.1" xmlns="http://www.w3.org/2000/svg" p-id="3851" xmlns:xlink="http://www.w3.org/1999/xlink" width="200" height="200"><path d="M502.01 765.94a19.307 19.307 0 0 0 13.597 5.574c0.076 0 0.152-0.01 0.227-0.012 0.33 0.017 0.655 0.05 0.989 0.05 0.706 0 1.4-0.043 2.087-0.116a19.284 19.284 0 0 0 11.962-5.496l335.054-330.167c7.62-7.51 7.71-19.773 0.2-27.394s-19.774-7.712-27.395-0.202L536.193 706.304V50.02c0-10.698-8.673-19.371-19.371-19.371s-19.371 8.673-19.371 19.371v657.032L190.569 404.603c-7.618-7.509-19.884-7.42-27.394 0.2-7.509 7.62-7.42 19.884 0.2 27.393L502.01 765.94z" fill="" p-id="3852"></path><path d="M867.17 711.02c-10.699 0-19.371 8.673-19.371 19.372v165.42c0 13.054-10.62 23.675-23.676 23.675h-618.94c-13.055 0-23.677-10.621-23.677-23.676V730.392c0-10.699-8.673-19.371-19.371-19.371s-19.372 8.672-19.372 19.371v165.42c0 34.416 28.001 62.416 62.418 62.416h618.942c34.418 0 62.417-28 62.417-62.417V730.392c0.001-10.699-8.671-19.371-19.37-19.371z" fill="" p-id="3853"></path></svg>